<svg xmlns="http://www.w3.org/2000/svg" version="1.1" xmlns:xlink="http://www.w3.org/1999/xlink" viewBox="0 0 200 200"><rect width="200" height="200" fill="url('#gradient')"></rect><defs><linearGradient id="gradient" gradientTransform="rotate(45 0.5 0.5)"><stop offset="0%" stop-color="#267479"></stop><stop offset="100%" stop-color="#237a8d"></stop></linearGradient></defs><g><g fill="#0f2816" transform="matrix(4.784379358437936,0,0,4.784379358437936,31.31976503630895,133.54021711429294)" stroke="#498990" stroke-width="0.2"><path d="M6.74-4.46L6.74-14.22L10.16-14.22L10.16-4.46Q10.16-3.11 9.53-2.04Q8.90-0.98 7.77-0.39Q6.64 0.20 5.25 0.20L5.25 0.20Q2.93 0.20 1.64-0.98Q0.35-2.15 0.35-4.30L0.35-4.30L3.79-4.30Q3.79-3.32 4.13-2.88Q4.46-2.44 5.25-2.44L5.25-2.44Q5.97-2.44 6.35-2.97Q6.74-3.51 6.74-4.46L6.74-4.46ZM21.35-14.22L23.33-5.30L24.96-14.22L28.36-14.22L25.34 0L21.79 0L19.88-8.11L18.02 0L14.47 0L11.45-14.22L14.85-14.22L16.48-5.30L18.44-14.22L21.35-14.22Z"></path></g></g></svg>